<svg 
  xmlns="http://www.w3.org/2000/svg" 
  viewBox="0 0 5000 2500" 
  preserveAspectRatio="xMidYMid slice" 
  style="width: 100%; height: 100%; display: block;"
>
	<title>home_page</title>
	<defs>
		<clipPath clipPathUnits="userSpaceOnUse" id="cp1">
			<path d="m5000 2500.5h-5000v-2500h5000z"/>
		</clipPath>
		<linearGradient id="g1" x2="1" gradientUnits="userSpaceOnUse" gradientTransform="matrix(0,-2328.652,4657.304,0,0,2500.5)">
			<stop offset="0" stop-color="#e2e5e9"/>
			<stop offset="1" stop-color="#f9fbfa"/>
		</linearGradient>
		<linearGradient id="g2" x2="1" gradientUnits="userSpaceOnUse" gradientTransform="matrix(.998,0,0,.903,1105.137,2227.421)">
			<stop offset="0" stop-color="#f9fbfa"/>
			<stop offset="1" stop-color="#f9fbfa"/>
		</linearGradient>
		<linearGradient id="g3" x2="1" gradientUnits="userSpaceOnUse" gradientTransform="matrix(.998,0,0,.903,184.137,912.421)">
			<stop offset="0" stop-color="#f9fbfa"/>
			<stop offset="1" stop-color="#f9fbfa"/>
		</linearGradient>
		<linearGradient id="g4" x2="1" gradientUnits="userSpaceOnUse" gradientTransform="matrix(.998,0,0,.903,1896.242,-154.805)">
			<stop offset="0" stop-color="#f9fbfa"/>
			<stop offset="1" stop-color="#f9fbfa"/>
		</linearGradient>
		<linearGradient id="g5" x2="1" gradientUnits="userSpaceOnUse" gradientTransform="matrix(.998,0,0,.903,4746.242,141.579)">
			<stop offset="0" stop-color="#f9fbfa"/>
			<stop offset="1" stop-color="#f9fbfa"/>
		</linearGradient>
		<linearGradient id="g6" x2="1" gradientUnits="userSpaceOnUse" gradientTransform="matrix(.998,0,0,.903,2645.873,1631.886)">
			<stop offset="0" stop-color="#f9fbfa"/>
			<stop offset="1" stop-color="#f9fbfa"/>
		</linearGradient>
		<linearGradient id="g7" x2="1" gradientUnits="userSpaceOnUse" gradientTransform="matrix(.998,0,0,.903,2801.242,1380.579)">
			<stop offset="0" stop-color="#f9fbfa"/>
			<stop offset="1" stop-color="#f9fbfa"/>
		</linearGradient>
		<linearGradient id="g8" x2="1" gradientUnits="userSpaceOnUse" gradientTransform="matrix(.998,0,0,.903,5351.4,706.294)">
			<stop offset="0" stop-color="#f9fbfa"/>
			<stop offset="1" stop-color="#f9fbfa"/>
		</linearGradient>
		<linearGradient id="g9" x2="1" gradientUnits="userSpaceOnUse" gradientTransform="matrix(.998,0,0,.903,2632.777,3440.195)">
			<stop offset="0" stop-color="#f9fbfa"/>
			<stop offset="1" stop-color="#f9fbfa"/>
		</linearGradient>
	</defs>
	<style>
		.s0 { fill: url(#g1) } 
		.s1 { fill: url(#g2) } 
		.s2 { fill: url(#g3) } 
		.s3 { fill: url(#g4) } 
		.s4 { fill: none;stroke: #f9fbfa;stroke-miterlimit:10;stroke-width: 8 } 
		.s5 { fill: url(#g5) } 
		.s6 { fill: url(#g6) } 
		.s7 { fill: url(#g7) } 
		.s8 { fill: url(#g8) } 
		.s9 { fill: url(#g9) } 
	</style>
	<g id="_Artboards_">
	</g>
	<g id="Layer 1" clip-path="url(#cp1)">
		<path id="&lt;Mesh&gt;" class="s0" d="m0 2500.5q2500 0 5000 0 0-1164.3 0-2328.7-2500 0-5000 0 0 1164.4 0 2328.7zm0-2328.7q2500 0 5000 0 0-85.6 0-171.3-2500 0-5000 0 0 85.7 0 171.3z"/>
		<path id="&lt;Mesh&gt;" class="s1" d="m948.2 1956.8q78.1 135.3 156.3 270.6 8.8 15.4 17.7 30.8c25.1 43.5 71.6 70.3 121.8 70.3q174 0 348 0c50.2 0 96.7-26.8 121.8-70.3q8.9-15.4 17.7-30.8 78.2-135.3 156.3-270.6c13.7-23.7 19.9-50.4 18.7-76.8-11-0.2-23.9-0.2-34.9-0.5-47.2-1.2-123.6-1.3-195.9-1.3-165.8 0-349.6 0-515.4 0-72.3 0-148.7 0.1-195.9 1.3-11 0.3-23.9 0.3-34.9 0.5-1.2 26.4 5 53.1 18.7 76.8zm0-140.6c-11.4 19.8-17.7 41.7-18.7 63.8 11-0.2 23.9-0.2 34.9-0.5 47.2-1.2 123.6-1.3 195.9-1.3 165.8 0 349.6 0 515.4 0 72.3 0 148.7 0.1 195.9 1.3 11 0.3 23.9 0.3 34.9 0.5-1-22.1-7.3-44-18.7-63.8q-78.1-135.3-156.3-270.6-8.8-15.4-17.7-30.8c-25.1-43.5-71.6-70.3-121.8-70.3q-174 0-348 0c-50.2 0-96.7 26.8-121.8 70.3q-8.9 15.4-17.7 30.8-78.2 135.3-156.3 270.6z"/>
		<path id="&lt;Mesh&gt;" class="s2" d="m27.2 641.8q78.1 135.3 156.3 270.6 8.8 15.4 17.7 30.8c25.1 43.5 71.6 70.3 121.8 70.3q174 0 348 0c50.2 0 96.7-26.8 121.8-70.3q8.9-15.4 17.7-30.8 78.2-135.3 156.3-270.6c13.7-23.7 19.9-50.4 18.7-76.8-11-0.2-23.9-0.2-34.9-0.5-47.2-1.2-123.6-1.3-195.9-1.3-165.8 0-349.6 0-515.4 0-72.3 0-148.7 0.1-195.9 1.3-11 0.3-23.9 0.3-34.9 0.5-1.2 26.4 5 53.1 18.7 76.8zm0-140.6c-11.4 19.8-17.7 41.7-18.7 63.8 11-0.2 23.9-0.2 34.9-0.5 47.2-1.2 123.6-1.3 195.9-1.3 165.8 0 349.6 0 515.4 0 72.3 0 148.7 0.1 195.9 1.3 11 0.3 23.9 0.3 34.9 0.5-1-22.1-7.3-44-18.7-63.8q-78.1-135.3-156.3-270.6-8.8-15.4-17.7-30.8c-25.1-43.5-71.6-70.3-121.8-70.3q-174 0-348 0c-50.2 0-96.7 26.8-121.8 70.3q-8.9 15.4-17.7 30.8-78.2 135.3-156.3 270.6z"/>
		<path id="&lt;Mesh&gt;" class="s3" d="m2053.2 115.8q-78.2-135.3-156.3-270.6-8.9-15.4-17.7-30.8c-25.2-43.5-71.6-70.3-121.8-70.3q-174 0-348 0c-50.3 0-96.7 26.8-121.8 70.3q-8.9 15.4-17.8 30.8-78.1 135.3-156.2 270.6c-13.7 23.7-19.9 50.4-18.7 76.8 11 0.3 23.8 0.3 34.9 0.5 47.1 1.2 123.6 1.3 195.9 1.3 165.8 0 349.5 0 515.4 0 72.3 0 148.7-0.1 195.9-1.3 11-0.2 23.8-0.2 34.9-0.5 1.2-26.4-5.1-53.1-18.7-76.8zm0 140.6c11.4-19.8 17.6-41.7 18.7-63.8-11.1 0.3-23.9 0.3-34.9 0.5-47.2 1.2-123.6 1.3-195.9 1.3-165.9 0-349.6 0-515.4 0-72.3 0-148.8-0.1-195.9-1.3-11.1-0.2-23.9-0.2-34.9-0.5 1 22.1 7.3 44 18.7 63.8q78.1 135.3 156.2 270.6 8.9 15.4 17.8 30.8c25.1 43.5 71.5 70.3 121.8 70.3q174 0 348 0c50.2 0 96.6-26.8 121.8-70.3q8.8-15.4 17.7-30.8 78.1-135.3 156.3-270.6z"/>
		<path id="&lt;Path&gt;" class="s4" d="m1669.6 450.5h-479.2c-53.6 0-103.1 28.6-129.9 75l-239.6 415c-26.8 46.4-26.8 103.6 0 150l239.6 415c26.8 46.4 76.3 75 129.9 75h479.2c53.6 0 103.1-28.6 129.9-75l239.6-415c26.8-46.4 26.8-103.6 0-150l-239.6-415c-26.8-46.4-76.3-75-129.9-75z"/>
		<path id="&lt;Mesh&gt;" class="s5" d="m4903.2 412.2q-78.2-135.3-156.3-270.6-8.9-15.4-17.7-30.8c-25.2-43.5-71.6-70.3-121.8-70.3q-174 0-348 0c-50.3 0-96.7 26.8-121.8 70.3q-8.9 15.4-17.8 30.8-78.1 135.3-156.2 270.6c-13.7 23.7-19.9 50.4-18.7 76.8 11 0.2 23.8 0.2 34.9 0.5 47.1 1.2 123.6 1.3 195.9 1.3 165.8 0 349.5 0 515.4 0 72.3 0 148.7-0.1 195.9-1.3 11-0.3 23.8-0.3 34.9-0.5 1.2-26.4-5.1-53.1-18.7-76.8zm0 140.6c11.4-19.8 17.6-41.7 18.7-63.8-11.1 0.2-23.9 0.2-34.9 0.5-47.2 1.2-123.6 1.3-195.9 1.3-165.9 0-349.6 0-515.4 0-72.3 0-148.8-0.1-195.9-1.3-11.1-0.3-23.9-0.3-34.9-0.5 1 22.1 7.3 44 18.7 63.8q78.1 135.3 156.2 270.6 8.9 15.4 17.8 30.8c25.1 43.5 71.5 70.3 121.8 70.3q174 0 348 0c50.2 0 96.6-26.8 121.8-70.3q8.8-15.4 17.7-30.8 78.1-135.3 156.3-270.6z"/>
		<path id="&lt;Mesh&gt;" class="s6" d="m2294.2 1025.5q175.1 303.2 350.1 606.4 19.9 34.5 39.8 68.9c56.3 97.5 160.4 157.6 273 157.6q389.9 0 779.8 0c112.6 0 216.7-60.1 273-157.6q19.9-34.4 39.8-68.9 175-303.2 350.1-606.4c30.6-53.1 44.6-112.9 41.9-172.1-24.7-0.6-53.5-0.6-78.1-1.2-105.8-2.6-277-2.8-439.1-2.8-371.6 0-783.4 0-1155 0-162.1 0-333.3 0.2-439.1 2.8-24.6 0.6-53.4 0.6-78.1 1.2-2.7 59.2 11.3 119 41.9 172.1zm0-315.2c-25.6 44.4-39.6 93.5-41.9 143.1 24.7-0.6 53.5-0.6 78.1-1.2 105.8-2.6 277-2.8 439.1-2.8 371.6 0 783.4 0 1155 0 162.1 0 333.3 0.2 439.1 2.8 24.6 0.6 53.4 0.6 78.1 1.2-2.3-49.6-16.3-98.7-41.9-143.1q-175.1-303.2-350.1-606.4-19.9-34.5-39.8-69c-56.3-97.5-160.4-157.5-273-157.5q-389.9 0-779.8 0c-112.6 0-216.7 60-273 157.5q-19.9 34.5-39.8 69-175 303.2-350.1 606.4z"/>
		<path id="&lt;Path&gt;" class="s4" d="m3260.8 603.5h479.2c53.6 0 103.1-28.6 129.9-75l239.6-415c26.8-46.4 26.8-103.6 0-150l-239.6-415c-26.8-46.4-76.3-75-129.9-75h-479.2c-53.6 0-103.1 28.6-129.9 75l-239.6 415c-26.8 46.4-26.8 103.6 0 150l239.6 415c26.8 46.4 76.3 75 129.9 75z"/>
		<path id="&lt;Mesh&gt;" class="s7" d="m2958.2 1651.2q-78.2-135.3-156.3-270.6-8.9-15.4-17.7-30.8c-25.2-43.5-71.6-70.3-121.8-70.3q-174 0-348 0c-50.3 0-96.7 26.8-121.8 70.3q-8.9 15.4-17.8 30.8-78.1 135.3-156.2 270.6c-13.7 23.7-19.9 50.4-18.7 76.8 11 0.2 23.8 0.2 34.9 0.5 47.1 1.2 123.6 1.3 195.9 1.3 165.8 0 349.5 0 515.4 0 72.3 0 148.7-0.1 195.9-1.3 11-0.3 23.8-0.3 34.9-0.5 1.2-26.4-5.1-53.1-18.7-76.8zm0 140.6c11.4-19.8 17.6-41.7 18.7-63.8-11.1 0.2-23.9 0.2-34.9 0.5-47.2 1.2-123.6 1.3-195.9 1.3-165.9 0-349.6 0-515.4 0-72.3 0-148.8-0.1-195.9-1.3-11.1-0.3-23.9-0.3-34.9-0.5 1 22.1 7.3 44 18.7 63.8q78.1 135.3 156.2 270.6 8.9 15.4 17.8 30.8c25.1 43.5 71.5 70.3 121.8 70.3q174 0 348 0c50.2 0 96.6-26.8 121.8-70.3q8.8-15.4 17.7-30.8 78.1-135.3 156.3-270.6z"/>
		<path id="&lt;Mesh&gt;" class="s8" d="m5721.6 1344.6q-184.3-319.1-368.6-638.3-20.9-36.3-41.9-72.6c-59.2-102.6-168.8-165.8-287.3-165.8q-410.4 0-820.9 0c-118.5 0-228 63.2-287.3 165.8q-20.9 36.3-41.9 72.6-184.2 319.2-368.5 638.3c-32.3 55.9-47 118.9-44.1 181.2 26 0.6 56.3 0.6 82.2 1.2 111.3 2.7 291.6 3 462.2 3 391.2 0 824.6 0 1215.8 0 170.6 0 350.8-0.3 462.1-3 26-0.6 56.3-0.6 82.2-1.2 2.9-62.3-11.8-125.3-44-181.2zm0 331.8c27-46.8 41.6-98.5 44-150.6-25.9 0.6-56.2 0.6-82.2 1.2-111.3 2.7-291.5 3-462.1 3-391.2 0-824.6 0-1215.8 0-170.6 0-350.9-0.3-462.2-3-25.9-0.6-56.2-0.6-82.2-1.2 2.4 52.1 17.1 103.8 44.1 150.6q184.3 319.1 368.5 638.3 21 36.3 41.9 72.6c59.3 102.6 168.8 165.8 287.3 165.8q410.5 0 820.9 0c118.5 0 228.1-63.2 287.3-165.8q21-36.3 41.9-72.6 184.3-319.2 368.6-638.3z"/>
		<path id="&lt;Mesh&gt;" class="s9" d="m1882.8 2146.9q373.4 646.7 746.7 1293.3 42.5 73.5 84.9 147c120.1 208 341.9 336.1 582 336.1q831.6 0 1663.2 0c240.1 0 461.9-128.1 582-336.1q42.4-73.5 84.9-147 373.3-646.6 746.7-1293.3c65.3-113.2 95.1-240.7 89.3-367-52.6-1.2-114-1.3-166.6-2.5-225.5-5.5-590.7-6-936.3-6-792.6 0-1670.6 0-2463.2 0-345.6 0-710.8 0.5-936.3 6-52.6 1.2-114 1.3-166.6 2.5-5.8 126.3 24 253.8 89.3 367zm0-672.1c-54.6 94.8-84.4 199.5-89.3 305.1 52.6-1.2 114-1.3 166.6-2.5 225.5-5.5 590.7-6 936.3-6 792.6 0 1670.6 0 2463.2 0 345.6 0 710.8 0.5 936.3 6 52.6 1.2 114 1.3 166.6 2.5-4.9-105.6-34.7-210.3-89.3-305.1q-373.4-646.6-746.7-1293.2-42.5-73.5-84.9-147.1c-120.1-207.9-341.9-336-582-336q-831.6 0-1663.2 0c-240.1 0-461.9 128.1-582 336q-42.4 73.6-84.9 147.1-373.3 646.6-746.7 1293.2z"/>
		<path id="&lt;Path&gt;" class="s4" d="m2236.8 3157.5h479.2c53.6 0 103.1-28.6 129.9-75l239.6-415c26.8-46.4 26.8-103.6 0-150l-239.6-415c-26.8-46.4-76.3-75-129.9-75h-479.2c-53.6 0-103.1 28.6-129.9 75l-239.6 415c-26.8 46.4-26.8 103.6 0 150l239.6 415c26.8 46.4 76.3 75 129.9 75z"/>
		<path id="&lt;Path&gt;" class="s4" d="m4622.6 1736.5h-479.2c-53.6 0-103.1 28.6-129.9 75l-239.6 415c-26.8 46.4-26.8 103.6 0 150l239.6 415c26.8 46.4 76.3 75 129.9 75h479.2c53.6 0 103.1-28.6 129.9-75l239.6-415c26.8-46.4 26.8-103.6 0-150l-239.6-415c-26.8-46.4-76.3-75-129.9-75z"/>
	</g>
</svg>